<svg width="189" height="141" viewBox="0 0 189 141" fill="none" xmlns="http://www.w3.org/2000/svg">
<g id="Group 1762">
<g id="Group 1682">
<g id="Group 106">
<g id="Group">
<path id="Vector" d="M162.999 92.1087C163.035 92.0899 163.071 92.0729 163.107 92.0541C163.071 92.071 163.035 92.0899 162.999 92.1087ZM85.3916 77.6571C85.5847 77.9486 85.7846 78.2363 85.9895 78.5203C85.7863 78.2345 85.5864 77.9467 85.3916 77.6571ZM163.107 92.0522C163.071 92.071 163.035 92.0899 162.999 92.1087C163.035 92.0899 163.071 92.0729 163.107 92.0541C163.113 92.0504 163.118 92.0485 163.124 92.0447C163.118 92.0447 163.113 92.0504 163.107 92.0522ZM85.3916 77.6571C85.5847 77.9486 85.7846 78.2363 85.9895 78.5203C85.7863 78.2345 85.5864 77.9467 85.3916 77.6571ZM80.5396 65.5433C80.5363 65.5282 80.5346 65.515 80.5312 65.5C80.5363 65.5339 80.5413 65.5677 80.548 65.6016C80.5447 65.5828 80.5413 65.5621 80.5396 65.5433ZM85.3916 77.6571C85.5847 77.9486 85.7846 78.2363 85.9895 78.5203C85.7863 78.2345 85.5864 77.9467 85.3916 77.6571ZM163.107 92.0522C163.071 92.071 163.035 92.0899 162.999 92.1087C163.035 92.0899 163.071 92.0729 163.107 92.0541C163.113 92.0504 163.118 92.0485 163.124 92.0447C163.118 92.0447 163.113 92.0504 163.107 92.0522ZM179.369 78.5203C179.574 78.2363 179.774 77.9486 179.967 77.6571C179.772 77.9467 179.572 78.2345 179.369 78.5203ZM183.635 70.3166C183.628 70.3391 183.621 70.3617 183.613 70.3843C183.636 70.3222 183.658 70.2583 183.678 70.1943C183.663 70.2357 183.65 70.2752 183.635 70.3166ZM85.3916 77.6571C85.5847 77.9486 85.7846 78.2363 85.9895 78.5203C85.7863 78.2345 85.5864 77.9467 85.3916 77.6571ZM163.107 92.0522C163.071 92.071 163.035 92.0899 162.999 92.1087C163.035 92.0899 163.071 92.0729 163.107 92.0541C163.113 92.0504 163.118 92.0485 163.124 92.0447C163.118 92.0447 163.113 92.0504 163.107 92.0522ZM85.3916 77.6571C85.5847 77.9486 85.7846 78.2363 85.9895 78.5203C85.7863 78.2345 85.5864 77.9467 85.3916 77.6571ZM163.107 92.0522C163.071 92.071 163.035 92.0899 162.999 92.1087C163.035 92.0899 163.071 92.0729 163.107 92.0541C163.113 92.0504 163.118 92.0485 163.124 92.0447C163.118 92.0447 163.113 92.0504 163.107 92.0522ZM80.5396 65.5433C80.5363 65.5282 80.5346 65.515 80.5312 65.5C80.5363 65.5339 80.5413 65.5677 80.548 65.6016C80.5447 65.5828 80.5413 65.5621 80.5396 65.5433ZM85.3916 77.6571C85.5847 77.9486 85.7846 78.2363 85.9895 78.5203C85.7863 78.2345 85.5864 77.9467 85.3916 77.6571ZM162.999 92.1087C163.035 92.0899 163.071 92.0729 163.107 92.0541C163.071 92.071 163.035 92.0899 162.999 92.1087ZM179.369 78.5203C179.574 78.2363 179.774 77.9486 179.967 77.6571C179.772 77.9467 179.572 78.2345 179.369 78.5203ZM183.635 70.3166C183.628 70.3391 183.621 70.3617 183.613 70.3843C183.636 70.3222 183.658 70.2583 183.678 70.1943C183.663 70.2357 183.65 70.2752 183.635 70.3166Z" fill="#D5C7FF"/>
<path id="Vector_2" d="M123.305 102.683C123.267 102.678 123.23 102.674 123.191 102.67C123.23 102.676 123.267 102.681 123.305 102.685C123.326 102.687 123.344 102.689 123.362 102.693C123.342 102.689 123.324 102.687 123.305 102.683ZM123.305 102.683C123.267 102.678 123.23 102.674 123.191 102.67C123.23 102.676 123.267 102.681 123.305 102.685C123.326 102.687 123.344 102.689 123.362 102.693C123.342 102.689 123.324 102.687 123.305 102.683ZM123.305 102.683C123.267 102.678 123.23 102.674 123.191 102.67C123.23 102.676 123.267 102.681 123.305 102.685C123.326 102.687 123.344 102.689 123.362 102.693C123.342 102.689 123.324 102.687 123.305 102.683ZM123.305 102.683C123.267 102.678 123.23 102.674 123.191 102.67C123.23 102.676 123.267 102.681 123.305 102.685C123.326 102.687 123.344 102.689 123.362 102.693C123.342 102.689 123.324 102.687 123.305 102.683ZM123.305 102.683C123.267 102.678 123.23 102.674 123.191 102.67C123.23 102.676 123.267 102.681 123.305 102.685C123.326 102.687 123.344 102.689 123.362 102.693C123.342 102.689 123.324 102.687 123.305 102.683ZM184.817 65.5444C184.821 65.5294 184.822 65.5162 184.826 65.5012C184.829 65.4767 184.832 65.4541 184.836 65.4297C184.831 65.4692 184.824 65.5068 184.817 65.5444ZM182.736 80.3891C183.049 79.9377 183.348 79.4807 183.636 79.018C183.346 79.4788 183.047 79.9358 182.736 80.3891ZM176.89 87.1936C177.308 86.7986 177.716 86.398 178.114 85.988C177.715 86.3943 177.307 86.7967 176.89 87.1936ZM173.904 89.8021V89.8059C174.028 89.7062 174.151 89.6066 174.274 89.5031C174.151 89.6028 174.028 89.7025 173.904 89.8021ZM164.311 95.9766C164.387 95.939 164.46 95.9014 164.534 95.8638C164.46 95.8995 164.387 95.939 164.311 95.9766ZM123.305 102.683C123.267 102.678 123.23 102.674 123.191 102.67C123.23 102.676 123.267 102.681 123.305 102.685C123.326 102.687 123.344 102.689 123.362 102.693C123.342 102.689 123.324 102.687 123.305 102.683ZM91.31 89.6893C91.3571 89.7288 91.4041 89.7664 91.4511 89.804C91.4041 89.7645 91.3571 89.7269 91.31 89.6893ZM84.9667 83.4753C85.2052 83.7631 85.4487 84.0452 85.699 84.3273C85.4504 84.0452 85.2052 83.7612 84.9667 83.4753ZM82.1301 88.2186C82.1133 88.1791 82.0982 88.1377 82.0814 88.0963C82.1117 88.1772 82.1436 88.2581 82.1755 88.3389C82.1587 88.2994 82.1436 88.2581 82.1301 88.2186ZM80.538 65.5444C80.5313 65.5068 80.5246 65.4692 80.5195 65.4297C80.5229 65.4541 80.5262 65.4767 80.5296 65.5012C80.5346 65.535 80.5397 65.5689 80.5464 65.6027C80.543 65.5839 80.5397 65.5632 80.538 65.5444ZM123.305 102.683C123.267 102.678 123.23 102.674 123.191 102.67C123.23 102.676 123.267 102.681 123.305 102.685C123.326 102.687 123.344 102.689 123.362 102.693C123.342 102.689 123.324 102.687 123.305 102.683ZM123.305 102.683C123.267 102.678 123.23 102.674 123.191 102.67C123.23 102.676 123.267 102.681 123.305 102.685C123.326 102.687 123.344 102.689 123.362 102.693C123.342 102.689 123.324 102.687 123.305 102.683ZM123.305 102.683C123.267 102.678 123.23 102.674 123.191 102.67C123.23 102.676 123.267 102.681 123.305 102.685C123.326 102.687 123.344 102.689 123.362 102.693C123.342 102.689 123.324 102.687 123.305 102.683ZM123.305 102.683C123.267 102.678 123.23 102.674 123.191 102.67C123.23 102.676 123.267 102.681 123.305 102.685C123.326 102.687 123.344 102.689 123.362 102.693C123.342 102.689 123.324 102.687 123.305 102.683Z" fill="#D5C7FF"/>
<path id="Vector_3" d="M123.305 102.683C123.267 102.678 123.23 102.674 123.191 102.67C123.23 102.676 123.267 102.681 123.305 102.685C123.326 102.687 123.344 102.689 123.362 102.693C123.342 102.689 123.324 102.687 123.305 102.683ZM123.305 102.683C123.267 102.678 123.23 102.674 123.191 102.67C123.23 102.676 123.267 102.681 123.305 102.685C123.326 102.687 123.344 102.689 123.362 102.693C123.342 102.689 123.324 102.687 123.305 102.683ZM123.305 102.683C123.267 102.678 123.23 102.674 123.191 102.67C123.23 102.676 123.267 102.681 123.305 102.685C123.326 102.687 123.344 102.689 123.362 102.693C123.342 102.689 123.324 102.687 123.305 102.683ZM123.305 102.683C123.267 102.678 123.23 102.674 123.191 102.67C123.23 102.676 123.267 102.681 123.305 102.685C123.326 102.687 123.344 102.689 123.362 102.693C123.342 102.689 123.324 102.687 123.305 102.683ZM123.305 102.683C123.267 102.678 123.23 102.674 123.191 102.67C123.23 102.676 123.267 102.681 123.305 102.685C123.326 102.687 123.344 102.689 123.362 102.693C123.342 102.689 123.324 102.687 123.305 102.683ZM184.817 65.5444C184.821 65.5294 184.822 65.5162 184.826 65.5012C184.829 65.4767 184.832 65.4541 184.836 65.4297C184.831 65.4692 184.824 65.5068 184.817 65.5444ZM182.736 80.3891C183.049 79.9377 183.348 79.4807 183.636 79.018C183.346 79.4788 183.047 79.9358 182.736 80.3891ZM176.89 87.1936C177.308 86.7986 177.716 86.398 178.114 85.988C177.715 86.3943 177.307 86.7967 176.89 87.1936ZM173.904 89.8021V89.8059C174.028 89.7062 174.151 89.6066 174.274 89.5031C174.151 89.6028 174.028 89.7025 173.904 89.8021ZM164.311 95.9766C164.387 95.939 164.46 95.9014 164.534 95.8638C164.46 95.8995 164.387 95.939 164.311 95.9766ZM123.305 102.683C123.267 102.678 123.23 102.674 123.191 102.67C123.23 102.676 123.267 102.681 123.305 102.685C123.326 102.687 123.344 102.689 123.362 102.693C123.342 102.689 123.324 102.687 123.305 102.683ZM91.31 89.6893C91.3571 89.7288 91.4041 89.7664 91.4511 89.804C91.4041 89.7645 91.3571 89.7269 91.31 89.6893ZM84.9667 83.4753C85.2052 83.7631 85.4487 84.0452 85.699 84.3273C85.4504 84.0452 85.2052 83.7612 84.9667 83.4753ZM82.1301 88.2186C82.1133 88.1791 82.0982 88.1377 82.0814 88.0963C82.1117 88.1772 82.1436 88.2581 82.1755 88.3389C82.1587 88.2994 82.1436 88.2581 82.1301 88.2186ZM80.538 65.5444C80.5313 65.5068 80.5246 65.4692 80.5195 65.4297C80.5229 65.4541 80.5262 65.4767 80.5296 65.5012C80.5346 65.535 80.5397 65.5689 80.5464 65.6027C80.543 65.5839 80.5397 65.5632 80.538 65.5444ZM123.305 102.683C123.267 102.678 123.23 102.674 123.191 102.67C123.23 102.676 123.267 102.681 123.305 102.685C123.326 102.687 123.344 102.689 123.362 102.693C123.342 102.689 123.324 102.687 123.305 102.683ZM123.305 102.683C123.267 102.678 123.23 102.674 123.191 102.67C123.23 102.676 123.267 102.681 123.305 102.685C123.326 102.687 123.344 102.689 123.362 102.693C123.342 102.689 123.324 102.687 123.305 102.683ZM123.305 102.683C123.267 102.678 123.23 102.674 123.191 102.67C123.23 102.676 123.267 102.681 123.305 102.685C123.326 102.687 123.344 102.689 123.362 102.693C123.342 102.689 123.324 102.687 123.305 102.683ZM123.305 102.683C123.267 102.678 123.23 102.674 123.191 102.67C123.23 102.676 123.267 102.681 123.305 102.685C123.326 102.687 123.344 102.689 123.362 102.693C123.342 102.689 123.324 102.687 123.305 102.683Z" fill="#D5C7FF"/>
<path id="Vector_4" d="M176.996 103.954C184.208 97.0704 188.267 88.8892 188.828 80.1777C188.156 90.3487 182.613 99.5756 173.906 106.589L176.996 103.954ZM183.696 70.1421C183.696 70.1421 183.704 70.1214 183.708 70.1101C183.723 70.065 183.736 70.0217 183.75 69.9766C183.731 70.0311 183.713 70.0875 183.696 70.1421ZM183.635 70.3151C183.629 70.3377 183.622 70.3602 183.614 70.3828C183.637 70.3207 183.659 70.2568 183.679 70.1928C183.664 70.2342 183.65 70.2737 183.635 70.3151ZM183.365 71.073C183.365 71.073 183.36 71.0881 183.358 71.0956C183.382 71.0335 183.491 70.7345 183.521 70.648C183.553 70.5596 183.585 70.4712 183.614 70.3828C183.533 70.6141 183.451 70.8436 183.365 71.073ZM182.739 80.3864C183.051 79.9351 183.35 79.478 183.639 79.0154C183.348 79.4762 183.049 79.9332 182.739 80.3864ZM179.37 78.5189C179.574 78.2349 179.774 77.9471 179.967 77.6556C179.773 77.9452 179.573 78.233 179.37 78.5189ZM176.892 87.1909C177.311 86.796 177.719 86.3954 178.117 85.9854C177.717 86.3916 177.309 86.7941 176.892 87.1909ZM173.906 89.7995V89.8033C174.031 89.7036 174.153 89.6039 174.276 89.5005C174.153 89.6002 174.031 89.6998 173.906 89.7995Z" fill="#D5C7FF"/>
<path id="Vector_5" d="M163.108 92.0544C163.073 92.0732 163.036 92.092 163 92.1108C163.036 92.092 163.073 92.0751 163.108 92.0563C163.115 92.0525 163.12 92.0506 163.125 92.0469C163.12 92.0469 163.115 92.0525 163.108 92.0544ZM142.051 119.474V119.508L144.179 119.178C151.049 118.118 157.519 116.13 163.408 113.265L164.537 112.714V112.652C157.923 116.06 150.289 118.437 142.051 119.474ZM164.314 95.9776C164.389 95.94 164.463 95.9024 164.537 95.8648C164.463 95.9005 164.389 95.94 164.314 95.9776Z" fill="#D5C7FF"/>
<path id="Vector_6" d="M123.191 102.672C123.23 102.678 123.266 102.683 123.305 102.687C123.266 102.679 123.23 102.676 123.191 102.672Z" fill="#D5C7FF"/>
<path id="Vector_7" d="M81.2695 68.8672C81.2796 68.9104 81.2914 68.9518 81.3048 68.9932C81.3283 69.076 81.3518 69.1568 81.377 69.2377C81.3401 69.1136 81.3048 68.9913 81.2695 68.8672ZM81.6088 69.9749C81.6222 70.0201 81.6357 70.0633 81.6508 70.1085C81.6541 70.1198 81.6575 70.131 81.6625 70.1404C81.6726 70.1705 81.6827 70.1988 81.6928 70.227C81.6642 70.1423 81.6357 70.0596 81.6088 69.9749ZM82.1311 88.2143C82.1143 88.1748 82.0992 88.1334 82.0824 88.0921C82.1126 88.1729 82.1445 88.2538 82.1764 88.3347C82.1596 88.2952 82.1445 88.2538 82.1311 88.2143ZM84.9677 83.4711C85.2062 83.7589 85.4497 84.041 85.6999 84.3231C85.4514 84.041 85.2062 83.757 84.9677 83.4711ZM85.3909 77.654C85.5841 77.9455 85.7839 78.2333 85.9888 78.5172C85.7856 78.2314 85.5857 77.9436 85.3909 77.654ZM91.311 89.6851C91.358 89.7246 91.4051 89.7622 91.4521 89.7998C91.4051 89.7603 91.358 89.7227 91.311 89.6851Z" fill="#D5C7FF"/>
<path id="Vector_8" d="M132.679 19.3281C101.68 19.3281 76.4609 38.1562 76.4609 61.2986V78.088C76.4609 78.2779 76.4609 78.4679 76.466 78.6578C76.4693 78.829 76.4744 79.0001 76.4794 79.1694C76.4895 79.4966 76.508 79.822 76.5281 80.1493C76.5281 80.1587 76.5298 80.1699 76.5298 80.1812C77.0907 88.8928 81.1517 97.074 88.3632 103.957L91.4518 106.906V106.592C94.2649 108.859 97.4071 110.892 100.821 112.652V112.714L101.95 113.265C107.84 116.128 114.311 118.118 121.18 119.178L123.306 119.507V119.472C126.354 119.857 129.486 120.057 132.679 120.057C135.872 120.057 139.001 119.857 142.049 119.474C150.286 118.437 157.921 116.06 164.535 112.652C167.949 110.892 171.092 108.859 173.905 106.592C182.611 99.5791 188.155 90.3522 188.827 80.1812C188.827 80.1699 188.828 80.1587 188.828 80.1493C188.848 79.8239 188.867 79.4966 188.877 79.1694C188.882 79.0001 188.887 78.829 188.89 78.6578C188.894 78.4679 188.895 78.2779 188.895 78.088V61.2986C188.895 38.1562 163.677 19.3281 132.679 19.3281Z" fill="#D5C7FF"/>
</g>
<g id="Group_2">
<path id="Vector_9" d="M132.679 103.269C101.68 103.269 76.4609 84.4411 76.4609 61.2986C76.4609 38.1562 101.68 19.3281 132.679 19.3281C163.678 19.3281 188.897 38.1562 188.897 61.2986C188.897 84.4411 163.678 103.269 132.679 103.269ZM132.679 23.5259C103.747 23.5259 80.2095 40.4714 80.2095 61.2986C80.2095 82.1259 103.747 99.0713 132.679 99.0713C161.611 99.0713 185.149 82.1259 185.149 61.2986C185.149 40.4714 161.611 23.5259 132.679 23.5259Z" fill="#003232"/>
<path id="Vector_10" d="M132.68 92.7761C107.287 92.7761 85.832 78.3621 85.832 61.2982C85.832 44.2343 107.287 29.8203 132.68 29.8203C158.074 29.8203 179.529 44.2343 179.529 61.2982C179.529 78.3621 158.076 92.7761 132.68 92.7761ZM132.68 34.0181C109.318 34.0181 89.5806 46.51 89.5806 61.2982C89.5806 76.0864 109.319 88.5783 132.68 88.5783C156.042 88.5783 175.78 76.0864 175.78 61.2982C175.78 46.51 156.042 34.0181 132.68 34.0181Z" fill="#003232"/>
<path id="Vector_11" d="M132.679 120.055C101.68 120.055 76.4609 101.227 76.4609 78.0843V61.2969H80.2095C80.2095 82.1241 103.747 99.0696 132.679 99.0696C161.611 99.0696 185.149 82.1241 185.149 61.2969H188.897V78.0843C188.897 101.227 163.678 120.055 132.679 120.055ZM80.2095 76.371V78.0862C80.2095 98.9135 103.747 115.859 132.679 115.859C161.611 115.859 185.149 98.9135 185.149 78.0862V76.371C177.022 92.0883 156.566 103.267 132.679 103.267C108.792 103.267 88.3381 92.0883 80.2095 76.371Z" fill="#003232"/>
<path id="Vector_12" d="M132.679 120.055C101.68 120.055 76.4609 101.227 76.4609 78.0843V61.2969H80.2095C80.2095 82.1241 103.747 99.0696 132.679 99.0696C161.611 99.0696 185.149 82.1241 185.149 61.2969H188.897V78.0843C188.897 101.227 163.678 120.055 132.679 120.055ZM80.2095 76.371V78.0862C80.2095 98.9135 103.747 115.859 132.679 115.859C161.611 115.859 185.149 98.9135 185.149 78.0862V76.371C177.022 92.0883 156.566 103.267 132.679 103.267C108.792 103.267 88.3381 92.0883 80.2095 76.371Z" fill="#003232"/>
<path id="Vector_13" d="M173.906 106.905V84.603L174.566 83.9729C181.491 77.364 185.15 69.5232 185.15 61.2969H188.899V78.0843C188.899 87.5783 184.784 96.5231 176.998 103.956L173.908 106.905H173.906ZM177.655 86.527V97.4766C182.574 91.6181 185.15 84.9866 185.15 78.0843V76.4707C183.306 80.0365 180.797 83.4106 177.655 86.527Z" fill="#003232"/>
<path id="Vector_14" d="M142.051 119.514V98.4892L143.67 98.2391C150.201 97.231 156.341 95.3447 161.919 92.6326L164.539 91.3594V112.723L163.41 113.272C157.52 116.136 151.049 118.126 144.18 119.185L142.051 119.514ZM145.798 102.127V114.664C151.106 113.674 156.135 112.094 160.788 109.952V97.6805C156.096 99.7023 151.069 101.192 145.798 102.127Z" fill="#003232"/>
<path id="Vector_15" d="M123.308 119.514L121.179 119.185C114.308 118.126 107.839 116.134 101.949 113.272L100.82 112.723V91.3594L103.44 92.6326C109.018 95.3447 115.156 97.231 121.689 98.2391L123.307 98.4892V119.514H123.308ZM104.569 109.952C109.224 112.094 114.253 113.674 119.56 114.664V102.127C114.286 101.19 109.261 99.7004 104.569 97.6805V109.952Z" fill="#003232"/>
<path id="Vector_16" d="M91.4518 106.903L88.3632 103.954C80.5773 96.5249 76.4609 87.5783 76.4609 78.0843V61.2969H80.2095C80.2095 69.5232 83.8707 77.3659 90.7951 83.9729L91.4534 84.603V106.905L91.4518 106.903ZM80.2095 76.4707V78.0843C80.2095 84.9866 82.7858 91.6181 87.7049 97.4766V86.527C84.5626 83.4087 82.0535 80.0347 80.2095 76.4707Z" fill="#003232"/>
</g>
<path id="k" d="M129.503 76.4992H112.066C112.482 71.3546 112.482 66.1601 112.482 60.9655C112.482 55.9708 112.482 51.026 112.066 46.0312H129.503V51.1259L128.59 62.5139L138.139 51.5255H156.572C151.922 55.6711 147.272 59.8667 142.955 64.0123C147.272 68.158 151.922 72.3535 156.572 76.4992H137.807L128.59 65.6606L129.503 76.4992Z" fill="#003232"/>
</g>
<g id="Group 107">
<g id="Group_3">
<path id="Vector_17" d="M109.845 76.7262C109.868 76.6937 109.894 76.6622 109.917 76.6297C109.893 76.6605 109.868 76.6937 109.845 76.7262ZM33.8826 98.2091C34.185 98.3847 34.4918 98.5539 34.8014 98.7175C34.4925 98.5514 34.1857 98.3822 33.8826 98.2091ZM109.916 76.628C109.893 76.6605 109.868 76.6937 109.845 76.7262C109.868 76.6937 109.894 76.6622 109.917 76.6297C109.921 76.6233 109.925 76.6194 109.928 76.6138C109.923 76.616 109.921 76.6233 109.916 76.628ZM33.8826 98.2091C34.185 98.3847 34.4918 98.5539 34.8014 98.7175C34.4925 98.5514 34.1857 98.3822 33.8826 98.2091ZM24.1595 89.5057C24.1498 89.4938 24.1425 89.4827 24.1328 89.4707C24.1523 89.4988 24.1719 89.5269 24.1929 89.5543C24.1816 89.5389 24.1694 89.5219 24.1595 89.5057ZM33.8826 98.2091C34.185 98.3847 34.4918 98.5539 34.8014 98.7175C34.4925 98.5514 34.1857 98.3822 33.8826 98.2091ZM109.916 76.628C109.893 76.6605 109.868 76.6937 109.845 76.7262C109.868 76.6937 109.894 76.6622 109.917 76.6297C109.921 76.6233 109.925 76.6194 109.928 76.6138C109.923 76.616 109.921 76.6233 109.916 76.628ZM118.486 57.2855C118.544 56.9401 118.595 56.5936 118.639 56.2466C118.593 56.5926 118.541 56.9392 118.486 57.2855ZM118.669 48.0408C118.673 48.064 118.677 48.0872 118.679 48.1112C118.673 48.0451 118.664 47.9781 118.654 47.9119C118.659 47.9556 118.664 47.997 118.669 48.0408ZM33.8826 98.2091C34.185 98.3847 34.4918 98.5539 34.8014 98.7175C34.4925 98.5514 34.1857 98.3822 33.8826 98.2091ZM109.916 76.628C109.893 76.6605 109.868 76.6937 109.845 76.7262C109.868 76.6937 109.894 76.6622 109.917 76.6297C109.921 76.6233 109.925 76.6194 109.928 76.6138C109.923 76.616 109.921 76.6233 109.916 76.628ZM33.8826 98.2091C34.185 98.3847 34.4918 98.5539 34.8014 98.7175C34.4925 98.5514 34.1857 98.3822 33.8826 98.2091ZM109.916 76.628C109.893 76.6605 109.868 76.6937 109.845 76.7262C109.868 76.6937 109.894 76.6622 109.917 76.6297C109.921 76.6233 109.925 76.6194 109.928 76.6138C109.923 76.616 109.921 76.6233 109.916 76.628ZM24.1595 89.5057C24.1498 89.4938 24.1425 89.4827 24.1328 89.4707C24.1523 89.4988 24.1719 89.5269 24.1929 89.5543C24.1816 89.5389 24.1694 89.5219 24.1595 89.5057ZM33.8826 98.2091C34.185 98.3847 34.4918 98.5539 34.8014 98.7175C34.4925 98.5514 34.1857 98.3822 33.8826 98.2091ZM109.845 76.7262C109.868 76.6937 109.894 76.6622 109.917 76.6297C109.893 76.6605 109.868 76.6937 109.845 76.7262ZM118.486 57.2855C118.544 56.9401 118.595 56.5936 118.639 56.2466C118.593 56.5926 118.541 56.9392 118.486 57.2855ZM118.669 48.0408C118.673 48.064 118.677 48.0872 118.679 48.1112C118.673 48.0451 118.664 47.9781 118.654 47.9119C118.659 47.9556 118.664 47.997 118.669 48.0408Z" fill="#B9EE9F"/>
<path id="Vector_18" d="M78.9667 103.81C78.9296 103.822 78.8948 103.835 78.8585 103.849C78.8956 103.837 78.9313 103.826 78.9675 103.812C78.9864 103.805 79.0038 103.798 79.022 103.793C79.0023 103.799 78.9849 103.805 78.9667 103.81ZM78.9667 103.81C78.9296 103.822 78.8948 103.835 78.8585 103.849C78.8956 103.837 78.9313 103.826 78.9675 103.812C78.9864 103.805 79.0038 103.798 79.022 103.793C79.0023 103.799 78.9849 103.805 78.9667 103.81ZM78.9667 103.81C78.9296 103.822 78.8948 103.835 78.8585 103.849C78.8956 103.837 78.9313 103.826 78.9675 103.812C78.9864 103.805 79.0038 103.798 79.022 103.793C79.0023 103.799 78.9849 103.805 78.9667 103.81ZM78.9667 103.81C78.9296 103.822 78.8948 103.835 78.8585 103.849C78.8956 103.837 78.9313 103.826 78.9675 103.812C78.9864 103.805 79.0038 103.798 79.022 103.793C79.0023 103.799 78.9849 103.805 78.9667 103.81ZM78.9667 103.81C78.9296 103.822 78.8948 103.835 78.8585 103.849C78.8956 103.837 78.9313 103.826 78.9675 103.812C78.9864 103.805 79.0038 103.798 79.022 103.793C79.0023 103.799 78.9849 103.805 78.9667 103.81ZM117.614 43.2348C117.61 43.2198 117.606 43.2073 117.602 43.1923C117.594 43.1689 117.587 43.1472 117.58 43.1238C117.593 43.1614 117.603 43.1981 117.614 43.2348ZM122.336 57.4615C122.415 56.9184 122.48 56.3762 122.534 55.8334C122.478 56.3752 122.413 56.9174 122.336 57.4615ZM120.115 66.1535C120.315 65.614 120.503 65.0739 120.678 64.5298C120.5 65.0712 120.313 65.613 120.115 66.1535ZM118.597 69.8161L118.599 69.8195C118.666 69.675 118.731 69.5313 118.795 69.3842C118.73 69.5279 118.664 69.6716 118.597 69.8161ZM112.739 79.6059C112.79 79.5387 112.84 79.4722 112.889 79.4057C112.839 79.4705 112.79 79.5387 112.739 79.6059ZM78.9667 103.81C78.9296 103.822 78.8948 103.835 78.8585 103.849C78.8956 103.837 78.9313 103.826 78.9675 103.812C78.9864 103.805 79.0038 103.798 79.022 103.793C79.0023 103.799 78.9849 103.805 78.9667 103.81ZM44.5278 106.361C44.5875 106.376 44.6463 106.389 44.7052 106.402C44.6455 106.387 44.5867 106.374 44.5278 106.361ZM36.086 103.607C36.4274 103.759 36.7708 103.904 37.1202 104.046C36.7723 103.903 36.4266 103.758 36.086 103.607ZM35.6484 109.116C35.6159 109.089 35.5839 109.058 35.5505 109.029C35.6135 109.088 35.678 109.146 35.7425 109.204C35.7099 109.176 35.678 109.146 35.6484 109.116ZM24.1612 89.5028C24.1385 89.4721 24.1158 89.4414 24.0938 89.4082C24.1076 89.4286 24.1206 89.4474 24.1345 89.4678C24.154 89.4959 24.1736 89.524 24.1946 89.5513C24.1832 89.536 24.1711 89.5189 24.1612 89.5028ZM78.9667 103.81C78.9296 103.822 78.8948 103.835 78.8585 103.849C78.8956 103.837 78.9313 103.826 78.9675 103.812C78.9864 103.805 79.0038 103.798 79.022 103.793C79.0023 103.799 78.9849 103.805 78.9667 103.81ZM78.9667 103.81C78.9296 103.822 78.8948 103.835 78.8585 103.849C78.8956 103.837 78.9313 103.826 78.9675 103.812C78.9864 103.805 79.0038 103.798 79.022 103.793C79.0023 103.799 78.9849 103.805 78.9667 103.81ZM78.9667 103.81C78.9296 103.822 78.8948 103.835 78.8585 103.849C78.8956 103.837 78.9313 103.826 78.9675 103.812C78.9864 103.805 79.0038 103.798 79.022 103.793C79.0023 103.799 78.9849 103.805 78.9667 103.81ZM78.9667 103.81C78.9296 103.822 78.8948 103.835 78.8585 103.849C78.8956 103.837 78.9313 103.826 78.9675 103.812C78.9864 103.805 79.0038 103.798 79.022 103.793C79.0023 103.799 78.9849 103.805 78.9667 103.81Z" fill="#B9EE9F"/>
<path id="Vector_19" d="M78.9667 103.81C78.9296 103.822 78.8948 103.835 78.8585 103.849C78.8956 103.837 78.9313 103.826 78.9675 103.812C78.9864 103.805 79.0038 103.798 79.022 103.793C79.0023 103.799 78.9849 103.805 78.9667 103.81ZM78.9667 103.81C78.9296 103.822 78.8948 103.835 78.8585 103.849C78.8956 103.837 78.9313 103.826 78.9675 103.812C78.9864 103.805 79.0038 103.798 79.022 103.793C79.0023 103.799 78.9849 103.805 78.9667 103.81ZM78.9667 103.81C78.9296 103.822 78.8948 103.835 78.8585 103.849C78.8956 103.837 78.9313 103.826 78.9675 103.812C78.9864 103.805 79.0038 103.798 79.022 103.793C79.0023 103.799 78.9849 103.805 78.9667 103.81ZM78.9667 103.81C78.9296 103.822 78.8948 103.835 78.8585 103.849C78.8956 103.837 78.9313 103.826 78.9675 103.812C78.9864 103.805 79.0038 103.798 79.022 103.793C79.0023 103.799 78.9849 103.805 78.9667 103.81ZM78.9667 103.81C78.9296 103.822 78.8948 103.835 78.8585 103.849C78.8956 103.837 78.9313 103.826 78.9675 103.812C78.9864 103.805 79.0038 103.798 79.022 103.793C79.0023 103.799 78.9849 103.805 78.9667 103.81ZM117.614 43.2348C117.61 43.2198 117.606 43.2073 117.602 43.1923C117.594 43.1689 117.587 43.1472 117.58 43.1238C117.593 43.1614 117.603 43.1981 117.614 43.2348ZM122.336 57.4615C122.415 56.9184 122.48 56.3762 122.534 55.8334C122.478 56.3752 122.413 56.9174 122.336 57.4615ZM120.115 66.1535C120.315 65.614 120.503 65.0739 120.678 64.5298C120.5 65.0712 120.313 65.613 120.115 66.1535ZM118.597 69.8161L118.599 69.8195C118.666 69.675 118.731 69.5313 118.795 69.3842C118.73 69.5279 118.664 69.6716 118.597 69.8161ZM112.739 79.6059C112.79 79.5387 112.84 79.4722 112.889 79.4057C112.839 79.4705 112.79 79.5387 112.739 79.6059ZM78.9667 103.81C78.9296 103.822 78.8948 103.835 78.8585 103.849C78.8956 103.837 78.9313 103.826 78.9675 103.812C78.9864 103.805 79.0038 103.798 79.022 103.793C79.0023 103.799 78.9849 103.805 78.9667 103.81ZM44.5278 106.361C44.5875 106.376 44.6463 106.389 44.7052 106.402C44.6455 106.387 44.5867 106.374 44.5278 106.361ZM36.086 103.607C36.4274 103.759 36.7708 103.904 37.1202 104.046C36.7723 103.903 36.4266 103.758 36.086 103.607ZM35.6484 109.116C35.6159 109.089 35.5839 109.058 35.5505 109.029C35.6135 109.088 35.678 109.146 35.7425 109.204C35.7099 109.176 35.678 109.146 35.6484 109.116ZM24.1612 89.5028C24.1385 89.4721 24.1158 89.4414 24.0938 89.4082C24.1076 89.4286 24.1206 89.4474 24.1345 89.4678C24.154 89.4959 24.1736 89.524 24.1946 89.5513C24.1832 89.536 24.1711 89.5189 24.1612 89.5028ZM78.9667 103.81C78.9296 103.822 78.8948 103.835 78.8585 103.849C78.8956 103.837 78.9313 103.826 78.9675 103.812C78.9864 103.805 79.0038 103.798 79.022 103.793C79.0023 103.799 78.9849 103.805 78.9667 103.81ZM78.9667 103.81C78.9296 103.822 78.8948 103.835 78.8585 103.849C78.8956 103.837 78.9313 103.826 78.9675 103.812C78.9864 103.805 79.0038 103.798 79.022 103.793C79.0023 103.799 78.9849 103.805 78.9667 103.81ZM78.9667 103.81C78.9296 103.822 78.8948 103.835 78.8585 103.849C78.8956 103.837 78.9313 103.826 78.9675 103.812C78.9864 103.805 79.0038 103.798 79.022 103.793C79.0023 103.799 78.9849 103.805 78.9667 103.81ZM78.9667 103.81C78.9296 103.822 78.8948 103.835 78.8585 103.849C78.8956 103.837 78.9313 103.826 78.9675 103.812C78.9864 103.805 79.0038 103.798 79.022 103.793C79.0023 103.799 78.9849 103.805 78.9667 103.81Z" fill="#B9EE9F"/>
<path id="Vector_20" d="M127.646 81.1275C131.054 71.7589 131.062 62.6261 127.7 54.5701C131.61 63.9832 130.736 74.7119 126.045 84.86L127.646 81.1275ZM118.647 47.8536C118.647 47.8536 118.646 47.8313 118.644 47.8197C118.637 47.7726 118.63 47.7278 118.622 47.6814C118.63 47.7385 118.638 47.7973 118.647 47.8536ZM118.67 48.0355C118.674 48.0587 118.678 48.0819 118.68 48.1058C118.674 48.0398 118.665 47.9728 118.655 47.9065C118.66 47.9503 118.665 47.9917 118.67 48.0355ZM118.764 48.8347C118.764 48.8347 118.766 48.8504 118.768 48.8579C118.761 48.7918 118.727 48.4754 118.715 48.3845C118.705 48.2911 118.694 48.1977 118.68 48.1058C118.711 48.3489 118.739 48.5911 118.764 48.8347ZM122.335 57.4591C122.415 56.916 122.48 56.3738 122.533 55.831C122.477 56.3728 122.412 56.9151 122.335 57.4591ZM118.487 57.2802C118.545 56.9348 118.596 56.5883 118.64 56.2413C118.594 56.5873 118.542 56.9339 118.487 57.2802ZM120.115 66.1511C120.314 65.6116 120.502 65.0715 120.677 64.5275C120.499 65.0689 120.312 65.6106 120.115 66.1511ZM118.596 69.8137L118.598 69.8171C118.665 69.6726 118.731 69.5289 118.795 69.3818C118.729 69.5255 118.663 69.6693 118.596 69.8137Z" fill="#B9EE9F"/>
<path id="Vector_21" d="M109.917 76.6268C109.894 76.6593 109.869 76.6925 109.846 76.725C109.869 76.6925 109.895 76.6609 109.918 76.6284C109.922 76.6221 109.926 76.6182 109.929 76.6126C109.924 76.6148 109.922 76.6221 109.917 76.6268ZM103.212 110.542L103.227 110.573L104.988 109.333C110.675 105.334 115.59 100.682 119.598 95.5022L120.365 94.5076L120.337 94.4519C115.922 100.44 110.135 105.958 103.212 110.542ZM112.739 79.6076C112.79 79.5404 112.839 79.4739 112.889 79.4074C112.838 79.4722 112.79 79.5404 112.739 79.6076Z" fill="#B9EE9F"/>
<path id="Vector_22" d="M78.8555 103.846C78.8924 103.834 78.9278 103.823 78.9639 103.809C78.9261 103.819 78.8915 103.832 78.8555 103.846Z" fill="#B9EE9F"/>
<path id="Vector_23" d="M26.293 92.1582C26.3212 92.1925 26.3501 92.2244 26.3805 92.2555C26.4383 92.3192 26.4952 92.3813 26.5537 92.4426C26.4655 92.3477 26.3797 92.2538 26.293 92.1582ZM27.0885 93.0004C27.1206 93.0349 27.1518 93.0677 27.1854 93.1015C27.1934 93.1101 27.2014 93.1187 27.2101 93.1249C27.2325 93.1474 27.254 93.1682 27.2756 93.189C27.2124 93.1258 27.1501 93.0644 27.0885 93.0004ZM35.6493 109.114C35.6167 109.086 35.5848 109.056 35.5514 109.026C35.6144 109.086 35.6789 109.144 35.7433 109.202C35.7108 109.174 35.6789 109.144 35.6493 109.114ZM36.0869 103.605C36.4283 103.757 36.7717 103.902 37.1211 104.044C36.7732 103.901 36.4274 103.755 36.0869 103.605ZM33.8851 98.2041C34.1875 98.3797 34.4943 98.5489 34.804 98.7125C34.495 98.5464 34.1882 98.3772 33.8851 98.2041ZM44.5287 106.359C44.5883 106.374 44.6472 106.387 44.706 106.4C44.6463 106.385 44.5875 106.372 44.5287 106.359Z" fill="#B9EE9F"/>
<path id="Vector_24" d="M50.3815 24.9489C22.6005 38.7032 8.3539 66.7659 18.6221 87.5056L26.0714 102.552C26.1557 102.722 26.24 102.892 26.3288 103.06C26.4077 103.212 26.4882 103.363 26.5678 103.513C26.722 103.802 26.8829 104.085 27.0462 104.369C27.0504 104.378 27.0569 104.387 27.0619 104.397C31.4298 111.955 38.6991 117.485 48.2161 120.455L52.2925 121.727L52.1531 121.446C55.6797 122.228 59.3978 122.656 63.2387 122.719L63.2662 122.775L64.5221 122.768C71.0706 122.72 77.7526 121.632 84.379 119.535L86.4305 118.886L86.4146 118.854C89.3175 117.847 92.2129 116.636 95.0741 115.22C97.9353 113.803 100.651 112.236 103.212 110.54C110.135 105.956 115.922 100.438 120.337 94.4496C122.616 91.3571 124.53 88.1409 126.046 84.8617C130.736 74.7136 131.611 63.9849 127.7 54.5718C127.695 54.5617 127.691 54.5508 127.687 54.5424C127.561 54.2419 127.432 53.9404 127.296 53.6427C127.225 53.4887 127.154 53.3331 127.081 53.1782C127 53.0065 126.917 52.8355 126.833 52.6653L119.383 37.6191C109.115 16.8793 78.1609 11.1954 50.3815 24.9489Z" fill="#B9EE9F"/>
</g>
<g id="Group_4">
<path id="Vector_25" d="M87.6256 100.175C59.8446 113.929 28.8902 108.245 18.6221 87.5056C8.3539 66.7659 22.6005 38.7032 50.3815 24.9489C78.1625 11.1947 109.117 16.8786 119.385 37.6183C129.653 58.3581 115.407 86.4208 87.6256 100.175ZM52.244 28.7109C26.3158 41.5479 12.7405 67.1775 21.9814 85.8424C31.2224 104.507 59.8348 109.25 85.7631 96.4131C111.691 83.5761 125.267 57.9465 116.026 39.2815C106.785 20.6166 78.1722 15.8739 52.244 28.7109Z" fill="#003232"/>
<path id="Vector_26" d="M82.9723 90.768C60.2153 102.035 34.5924 98.6369 27.0212 83.3446C19.4501 68.0522 32.2822 45.6153 55.0392 34.3484C77.7962 23.0815 103.419 26.4795 110.99 41.7718C118.561 57.0641 105.731 79.5003 82.9723 90.768ZM56.9018 38.1104C35.9644 48.4764 23.8192 68.4285 30.3806 81.6813C36.9421 94.9342 60.174 97.3712 81.1098 87.006C102.046 76.6407 114.192 56.6879 107.631 43.435C101.07 30.1821 77.8376 27.7451 56.9018 38.1104Z" fill="#003232"/>
<path id="Vector_27" d="M95.077 115.224C67.296 128.978 36.3417 123.294 26.0735 102.554L18.625 87.5098L21.9844 85.8466C31.2253 104.512 59.8378 109.254 85.766 96.4172C111.694 83.5802 125.269 57.9506 116.029 39.2857L119.388 37.6225L126.836 52.667C137.105 73.4068 122.858 101.469 95.077 115.224ZM28.6727 99.3556L29.4337 100.893C38.6746 119.558 67.2871 124.3 93.2153 111.463C119.144 98.6265 132.719 72.9968 123.478 54.3319L122.717 52.7947C122.407 70.4861 109.035 89.5807 87.6285 100.179C66.2216 110.778 42.931 109.835 28.6727 99.3556Z" fill="#003232"/>
<path id="Vector_28" d="M95.077 115.224C67.296 128.978 36.3417 123.294 26.0735 102.554L18.625 87.5098L21.9844 85.8466C31.2253 104.512 59.8378 109.254 85.766 96.4172C111.694 83.5802 125.269 57.9506 116.029 39.2857L119.388 37.6225L126.836 52.667C137.105 73.4068 122.858 101.469 95.077 115.224ZM28.6727 99.3556L29.4337 100.893C38.6746 119.558 67.2871 124.3 93.2153 111.463C119.144 98.6265 132.719 72.9968 123.478 54.3319L122.717 52.7947C122.407 70.4861 109.035 89.5807 87.6285 100.179C66.2216 110.778 42.931 109.835 28.6727 99.3556Z" fill="#003232"/>
<path id="Vector_29" d="M126.185 85.1404L116.29 65.154L116.602 64.2965C119.875 55.3014 119.676 46.651 116.026 39.2787L119.385 37.6155L126.834 52.66C131.046 61.1683 131.327 71.0101 127.648 81.1257L126.187 85.1396L126.185 85.1404ZM120.503 65.215L125.361 75.0279C127.17 67.595 126.537 60.5089 123.474 54.3233L122.758 52.8771C122.688 56.891 121.936 61.028 120.503 65.215Z" fill="#003232"/>
<path id="Vector_30" d="M103.23 110.569L93.9018 91.7275L95.2417 90.785C100.648 86.9837 105.313 82.5688 109.108 77.6637L110.891 75.3601L120.37 94.5054L119.602 95.4984C115.595 100.679 110.679 105.333 104.993 109.33L103.23 110.569ZM98.8735 93.3248L104.436 104.56C108.755 101.318 112.56 97.6713 115.78 93.6867L110.335 82.689C107.027 86.5828 103.183 90.148 98.8735 93.3248Z" fill="#003232"/>
<path id="Vector_31" d="M86.4343 118.881L84.3798 119.531C77.7527 121.63 71.0713 122.716 64.5229 122.764L63.2678 122.772L53.7891 103.627L56.7019 103.606C62.9037 103.561 69.2418 102.528 75.5438 100.533L77.1042 100.04L86.4328 118.881L86.4343 118.881ZM65.398 118.626C70.5206 118.481 75.7278 117.665 80.9228 116.197L75.3602 104.962C70.2187 106.462 65.0545 107.357 59.9531 107.629L65.398 118.626Z" fill="#003232"/>
<path id="Vector_32" d="M52.2946 121.73L48.2182 120.457C37.9445 117.254 30.2859 111.063 26.0735 102.554L18.625 87.5098L21.9844 85.8466C25.6343 93.2188 32.3952 98.6228 41.5322 101.472L42.4017 101.744L52.2969 121.73L52.2946 121.73ZM28.7169 99.445L29.4329 100.891C32.4954 107.077 37.7465 111.877 44.7543 114.944L39.896 105.132C35.6964 103.731 31.9508 101.821 28.7169 99.445Z" fill="#003232"/>
</g>
<path id="k_2" d="M72.9028 77.6013L57.2763 85.3379C55.3657 80.5432 53.0609 75.888 50.7561 71.2328C48.54 66.7566 46.346 62.3252 43.7578 58.0332L59.3844 50.2966L61.6448 54.8623L65.8791 65.4732L69.561 51.3889L86.0805 43.2101C83.7528 48.9885 81.4473 54.8116 79.4172 60.4425C85.1261 62.242 91.1547 63.9389 97.1612 65.591L80.344 73.9171L67.2753 68.2932L72.9028 77.6013Z" fill="#003232"/>
</g>
</g>
</g>
</svg>
