<svg width="91" height="49" viewBox="0 0 91 49" fill="none"
  xmlns="http://www.w3.org/2000/svg">
  <g id="Group">
    <path id="Vector" d="M24.3587 35.7318C30.2882 34.803 37.7162 33.0991 46.6699 30.1365C55.6182 27.1795 62.673 24.096 68.0885 21.2708C67.3906 13.7408 63.2681 6.80434 56.4243 3.06679C45.312 -3.00122 31.2458 1.65422 25.0025 13.4605C21.156 20.7322 21.183 29.0208 24.3642 35.7318H24.3587Z" fill="#F5F2E7"/>
    <path id="Vector_2" d="M90.0733 9.58398C90.0733 9.58398 90.0733 9.57848 90.0733 9.57298C88.9535 5.45619 83.327 3.68085 73.3562 4.29095C70.8675 4.44485 66.6801 4.80211 63.7046 5.18686C64.1428 5.62657 63.6775 5.15938 65.8362 7.33045C67.7297 7.08312 71.8468 6.9622 73.5672 6.85777C83.9708 6.73135 86.0428 9.58398 86.3728 10.7932C86.8111 12.4036 84.5496 15.2343 79.9619 18.5926C73.7565 23.1985 63.05 28.8708 47.7124 33.944C32.3748 39.0172 20.6024 40.7815 13.1203 40.7045C7.61282 40.6881 4.30726 39.6987 3.86904 38.0883C3.22524 35.7248 9.89047 27.5242 19.6124 22.1597L20.0993 19.3676C8.2458 25.5565 -1.3571 33.7461 0.157724 39.314C0.568891 40.8145 1.60763 41.9742 3.16573 42.8207C7.3856 45.1236 15.3925 45.1731 24.871 43.7001C26.4237 43.4582 28.0142 43.1779 29.6319 42.8536C30.8816 43.9804 32.272 44.9807 33.8085 45.8217C44.9208 51.8897 58.987 47.2343 65.2302 35.428C66.0904 33.8011 66.7505 32.1247 67.2319 30.4263C68.7522 29.7063 70.2183 28.9752 71.6304 28.2332C74.2056 26.8866 76.6022 25.5125 78.7554 24.1274C87.3791 18.5926 91.1824 13.7008 90.0733 9.58398Z" fill="#F5F2E7"/>
  </g>
</svg>
